<?xml version="1.0" encoding="UTF-8"?>
<svg id="Layer_1" data-name="Layer 1" xmlns="http://www.w3.org/2000/svg" viewBox="0 0 72 72">
  <defs>
    <style>
      .cls-1 {
        fill: #0468ff;
      }

      .cls-2 {
        fill: #fff;
      }
    </style>
  </defs>
  <rect class="cls-1" x="0" y="0" width="72" height="72" rx="3.31" ry="3.31"/>
  <path class="cls-2" d="M54.21,60.3c-1.35,0-2.81-.12-2.81-1.19v-5.42c.31,0,1.3-.05,2.38-.05,1.48,0,3.13.07,3.43.37l.4-2.41c-.09.08-.68.1-1.74.1s-2.55-.02-4.48-.04v-4.88c0-.73.57-.76,2.27-.76h1.02c1.61,0,3.24.24,3.34.61.23-1.31.39-1.86.41-1.94.05-.31-.19-.42-.46-.42h-2.02c-.87,0-.89-.87-.89-.98,0-5.29-.03-7.98-.03-7.98,0-7.77-.15-8.27.74-8.69h-1.47c4.18-12.99,5.97-17.34,6.3-17.59-.64.08-1.28.12-1.9.12s-1.23-.04-1.87-.12c.35.18.51.47.51.89,0,1.07-2.92,9.75-3.6,11.35-.78-2-4.52-10.7-4.52-12.23-.32.06-1.37.11-1.77.11-.55,0-1.22-.02-1.96-.11.28.11.36.44.36.74,0,1.06-3.11,9.98-3.36,10.65-4.91-9.55-4.33-11.34-5.46-11.34,0,0-2.71.1-6.5.1-1.88,0-4.03-.03-6.24-.1.98.16,1.11,1.49,1.11,5.45,0,2.12-.04,5-.04,8.88-7.44-11.69-8.19-12.92-8.19-14.2v-.14s-5.25,0-5.25,0c.67.44.96,1.54.96,7.75,0,4.37-.24,8.4-.24,8.4-.09,1.5-1.56,1.61-1.56,1.61h4.08c.78,0,1.09.4,1.09.94,0,.74-.53,1.6-.92,2.29-.98,1.74-2.63,4.63-2.63,4.63-2.91-5.39-3.6-7.1-5.7-8.07H2.8c2.08.39,4.12,2.78,6.08,6.43,1.81,3.36,1.87,4.15,1.87,6.6l-.02,2.63c0,1.66-1.56,2.09-1.56,2.09h2.5c1.66,0,1.72,2.53,1.72,2.53,0,2.23.04,4.47.04,6.27,0,3.67-.04,5.65-.04,5.94,0,2.51-1.25,3.01-1.25,3.01.93-.05,1.79-.11,2.59-.11,3.05,0,4.98.16,6.27.16,1.02,0,1.53-.16,1.61-.72.07-.54.37-2.14.37-2.14-.71,1.09-1.93,1.15-3.41,1.15-.03,0-.07,0-.1,0-1.87,0-3.3,0-3.3-.94,0-.3-.09-2.8-.09-6.35,0-4.84.18-7.51.18-7.62,0-.1.03-1.27,1.65-1.4h-2.99c-1.13,0-1.55-.71-1.55-1.41v-3.1c0-1.83.13-2.35,1.06-4.08.32-.58,5.04-8.79,5.69-8.95h-3.36c-1.2,0-1.72-.97-1.72-1.45v-12.27c7.93,11.99,8.98,13.92,9.06,14.07-4.22.98-5.34,4.48-5.34,8.64s.91,7.47,4.93,8.56c1.09.3,1.53,1.5,1.53,2.56,0,0,0-.01,0-.01l.03,6.73c0,6.77-.27,8.37-1.21,8.69,1.05-.09,2-.11,2.79-.11,1.58,0,2.53.11,2.53.11-.93-.33-1.21-1.92-1.21-8.69l.03-6.76c0-1.02.61-2.27,1.5-2.5,4.1-1.06,5.03-4.5,5.03-8.58,0-4.36-1.16-7.98-5.92-8.76h6.07c2.22,0,2.74.72,2.74,8.34,0,6.93-.55,8.98-1.79,8.98h-1.63c1.11.33.95,2.22.95,8.85,0,7.31-.36,8.73-1.48,9.12,1.01-.09,1.93-.11,2.69-.11,1.51,0,2.43.11,2.43.11-1.17-.27-.91-2.71-.97-8.04.36-.02,1.47-.06,2.66-.06,1.55,0,3.22.08,3.55.41l.5-2.56c-.21.11-.88.13-2.64.13-.98,0-2.29,0-4.04,0v-5.35c0-.43.3-.61,3.28-.61,1.61,0,3.24.11,3.34.48.23-1.31.39-1.87.41-1.95.05-.31-.19-.42-.46-.42h-2.68c-1.22,0-1.3-.83-1.3-1.2,0-.05,0-.1,0-.13v-13.63c.03-.87.75-.97.75-.97.67-.13,1.26-.19,1.77-.19,2.37,0,3.21,1.28,3.21,2.62,0,2.13-1.55,3.38-3.36,3.38-.2,0-.29-.03-.37-.03-.06,0-.11.01-.14.04-.05.05-.03.13-.02.17.21.73,2.4,5.85,4.24,9.56.06.13.3.49.66.49,1.45,0,1.24,0,1.24,7.16,0,2.4-.03,5.27-.14,8.07-.16,2.34-1.11,2.64-1.11,2.64,1.26-.08,2.24-.11,2.99-.11,2.21,0,3,.16,6.81.16,1.44,0,1.17-.09,1.87-3.35-.31.96-1.27,1.45-4.63,1.45ZM31.59,35.75c0,4.28-.87,7.76-4.83,7.76s-4.83-3.47-4.83-7.76.44-7.76,4.83-7.76,4.83,3.47,4.83,7.76ZM40.18,26.63h-3.4c.3-2.91.31-3.47.31-3.53,0,0,0,0,0,0-.88,1.52-1.04,1.69-7.09,1.69-1.31,0-1.6-.98-1.6-1.46-.03-2.2,0-3.86,0-4.52,0-.13-.03-.43.26-.43,4.88-.17,5.45.15,5.47.22l.31-2.56c-.73.26-2.65.31-4.14.31-.9,0-1.64-.02-1.88-.03v-4.02c0-1.64.99-1.48,4.1-1.48.03,0,.06,0,.09,0,1.19,0,2.26.02,2.87,1.44.61,1.2,5.75,11.66,5.75,13.64,0,.59-.08.74-1.04.74ZM45.31,34.52c2.71-.31,3.87-2.2,3.87-4.02,0-4.3-4.64-3.89-5.36-3.89-.16,0-.33.02-.5.03,0-1.5,3.34-11.19,4.12-13.38,1.01,2.19,4.91,12.33,4.91,13.38h-1.35c.93.33,1.21,1.93,1.21,8.69,0,4.48-.19,7.9-.19,8.15,0,.59-.18.81-.45.81-1.35,0-4.39-5.64-6.26-9.76ZM58.52,33.71c1.4-1.65,5.83-6.52,6.98-7.07h-2.36s-1.08,0-1.73.75c0,0-2.11,2.33-6.08,7.02,0,0,.31.04,6.25,9.22,0,0,.4.67,1.16.67h3.54s-1.39-.49-7.77-10.57Z"/>
</svg>